<?xml version="1.0" standalone="no"?>
<svg id="Vector46" width="86" height="185" viewBox="0 0 86 185" fill="none" xmlns="http://www.w3.org/2000/svg" style="max-width: 100%; max-height: 100%;">
<path d="M42.5891 3.74478C42.4252 19.6099 42.7818 34.9386 39.0054 50.3706C37.0626 58.3096 35.5646 66.1482 31.753 73.4642C26.3187 83.8948 17.2928 96.5152 5.41896 100.232C3.6841 100.775 -0.250486 101.142 3.70393 100.113C7.99422 98.997 12.8092 98.1882 17.2423 97.9895C23.6745 97.7013 29.3843 102.061 33.4993 106.555C40.8573 114.592 44.3598 125.013 46.9438 135.453C49.5286 145.896 50.2139 156.467 51.804 167.068C52.3776 170.892 52.8986 174.727 53.2909 178.574C53.3215 178.875 53.7144 183.181 53.2014 182.288C50.3388 177.299 50.121 169.591 49.5447 164.066C48.6224 155.225 49.0756 146.367 50.0144 137.544C50.6693 131.388 51.2537 124.682 53.6771 118.89C56.5656 111.986 62.9008 107.581 68.8643 102.938C68.8643 102.938 85.8006 96.0185 82.9913 92.8919C76.5139 85.6828 56.0279 80.0602 52.0471 71.0633C47.5026 60.7925 46.5023 48.3952 46.1399 37.3056C45.7556 25.5441 44.9316 13.7371 45.7567 2" stroke="#2400FF" stroke-width="3.72796" stroke-linecap="round" stroke-dasharray="0,0,0,440.71502685546875"><animate attributeType="XML" attributeName="stroke-dasharray" repeatCount="1" dur="5.555555555555555s" values="0,0,0,440.71502685546875; 
          0,220.35751342773438,220.35751342773438,0; 
          440.71502685546875,0,0,0" keyTimes="0; 0.5; 1" fill="freeze"></animate></path>
<setting>{"type":"direct","speed":9,"random":1,"shift":1,"size":1,"rupture":50}</setting></svg>